<svg xmlns="http://www.w3.org/2000/svg" viewBox="0 0 1024 1024" role="img" aria-label="peptly icon">
  <title>peptly</title>
  <rect width="1024" height="1024" rx="180" ry="180" fill="#1F3A2E"/>
  <g fill="#F5F1EA" transform="translate(259.488 648.793) scale(0.383174 -0.383174)">
    <path d="M148 -418V1118H362V936H380Q400 971 435.5 1017.0Q471 1063 534.5 1097.5Q598 1132 703 1132Q837 1132 942.5 1064.0Q1048 996 1109.0 867.0Q1170 738 1170 556Q1170 376 1110.0 246.5Q1050 117 944.5 47.5Q839 -22 703 -22Q602 -22 537.5 12.5Q473 47 436.5 93.0Q400 139 380 175H368V-418ZM654 165Q750 165 815.0 217.0Q880 269 912.5 358.0Q945 447 945 558Q945 668 912.5 755.5Q880 843 815.5 894.0Q751 945 654 945Q560 945 495.0 896.5Q430 848 397.0 761.5Q364 675 364 558Q364 442 397.5 353.5Q431 265 496.0 215.0Q561 165 654 165Z"/>
  </g>
</svg>
