<svg xmlns="http://www.w3.org/2000/svg" viewBox="0 0 617.62 213.12" role="img" aria-label="peptly">
  <title>peptly</title>
  <g fill="#1F3A2E" transform="translate(9.688 155.195) scale(0.097656 -0.097656)">
      <path d="M148 -418V1118H362V936H380Q400 971 435.5 1017.0Q471 1063 534.5 1097.5Q598 1132 703 1132Q837 1132 942.5 1064.0Q1048 996 1109.0 867.0Q1170 738 1170 556Q1170 376 1110.0 246.5Q1050 117 944.5 47.5Q839 -22 703 -22Q602 -22 537.5 12.5Q473 47 436.5 93.0Q400 139 380 175H368V-418ZM654 165Q750 165 815.0 217.0Q880 269 912.5 358.0Q945 447 945 558Q945 668 912.5 755.5Q880 843 815.5 894.0Q751 945 654 945Q560 945 495.0 896.5Q430 848 397.0 761.5Q364 675 364 558Q364 442 397.5 353.5Q431 265 496.0 215.0Q561 165 654 165Z"/>
      <g transform="translate(1266 0)"><path d="M630 -23Q465 -23 345.0 48.0Q225 119 160.5 248.0Q96 377 96 551Q96 723 159.5 854.0Q223 985 339.0 1058.5Q455 1132 611 1132Q707 1132 796.0 1100.5Q885 1069 956.0 1002.0Q1027 935 1068.5 828.5Q1110 722 1110 570V492H317Q321 391 357 320Q396 240 467.0 199.5Q538 159 632 159Q694 159 744.0 176.5Q794 194 830.5 229.5Q867 265 886 317L1093 268Q1066 182 1002.5 116.0Q939 50 844.5 13.5Q750 -23 630 -23ZM318 656H892Q885 726 862 784Q830 862 767.5 906.0Q705 950 611 950Q518 950 452.0 905.0Q386 860 352 787Q323 726 318 656Z"/></g>
      <g transform="translate(2469 0)"><path d="M148 -418V1118H362V936H380Q400 971 435.5 1017.0Q471 1063 534.5 1097.5Q598 1132 703 1132Q837 1132 942.5 1064.0Q1048 996 1109.0 867.0Q1170 738 1170 556Q1170 376 1110.0 246.5Q1050 117 944.5 47.5Q839 -22 703 -22Q602 -22 537.5 12.5Q473 47 436.5 93.0Q400 139 380 175H368V-418ZM654 165Q750 165 815.0 217.0Q880 269 912.5 358.0Q945 447 945 558Q945 668 912.5 755.5Q880 843 815.5 894.0Q751 945 654 945Q560 945 495.0 896.5Q430 848 397.0 761.5Q364 675 364 558Q364 442 397.5 353.5Q431 265 496.0 215.0Q561 165 654 165Z"/></g>
      <g transform="translate(3735 0)"><path d="M626 1118V939H403V302Q403 235 431.5 203.5Q460 172 525 172Q542 172 570.0 176.0Q598 180 618 184L657 8Q622 -4 582.0 -9.5Q542 -15 503 -15Q351 -15 267.0 63.5Q183 142 183 284V939H20V1118H183V1384H403V1118Z"/></g>
      <g transform="translate(4432 0)"><path d="M368 1490V0H148V1490Z"/></g>
      <g transform="translate(4948 0)"><path d="M133 -402 187 -223 212 -229Q269 -244 314.5 -237.0Q360 -230 393.5 -194.5Q427 -159 447 -87L471 -5L46 1118H284L505 483Q542 377 567 272Q576 231 586 190Q597 231 608 273Q634 378 671 483L896 1118H1132L646 -155Q612 -245 562.5 -305.0Q513 -365 445.0 -395.5Q377 -426 287 -426Q235 -426 194.0 -418.5Q153 -411 133 -402Z"/></g>
  </g>
</svg>
